<?xml version="1.0" encoding="UTF-8" standalone="no"?>
<!DOCTYPE svg PUBLIC "-//W3C//DTD SVG 1.1//EN" "http://www.w3.org/Graphics/SVG/1.1/DTD/svg11.dtd">
<svg version="1.1" xmlns="http://www.w3.org/2000/svg" xmlns:xlink="http://www.w3.org/1999/xlink" preserveAspectRatio="xMidYMid meet" viewBox="79 29 484 94" width="480" height="90"><defs><path d="M500 100L500 50L560 50L560 100L500 100ZM510 90L550 90L550 60L510 60L510 90Z" id="b1d9YrT2vy"></path><path d="M430 100L430 50L490 50L490 100L430 100ZM440 90L480 90L480 60L440 60L440 90Z" id="p11nYALITP"></path><path d="M370 60L370 70L420 70L420 100L360 100L360 50L420 50L420 60L370 60ZM370 90L410 90L410 80L370 80L370 90Z" id="b3FR5PFCQc"></path><path d="M290 60L340 60L340 70L290 70L290 100L350 100L350 90L300 90L300 80L350 80L350 50L290 50L290 60Z" id="bmwTVC6oa"></path><path d="M90 100L90 120L80 120L80 50L140 50L140 100L90 100ZM90 90L130 90L130 60L90 60L90 90Z" id="c13xVLbVsj"></path><path d="M267.5 50L280 50L256.25 75L280 100L267.5 100L250 81.58L232.5 100L220 100L243.75 75L220 50L232.5 50L250 68.42L267.5 50Z" id="aNBlzpe4a"></path><path d="M200 100L200 60L160 60L160 100L150 100L150 30L160 30L160 50L210 50L210 100L200 100Z" id="a1g2zqDP1p"></path></defs><g><g><use xlink:href="#b1d9YrT2vy" opacity="1" fill="#ffffff" fill-opacity="1"></use><g><filter id="shadow9534216" x="490" y="40" width="80" height="72" filterUnits="userSpaceOnUse" primitiveUnits="userSpaceOnUse"><feFlood></feFlood><feComposite in2="SourceAlpha" operator="out"></feComposite><feGaussianBlur stdDeviation="1"></feGaussianBlur><feOffset dx="0" dy="2" result="afterOffset"></feOffset><feFlood flood-color="#000000" flood-opacity="0.66"></feFlood><feComposite in2="afterOffset" operator="in"></feComposite><feMorphology operator="dilate" radius="1"></feMorphology><feComposite in2="SourceAlpha" operator="in"></feComposite></filter><path d="M500 100L500 50L560 50L560 100L500 100ZM510 90L550 90L550 60L510 60L510 90Z" id="aYjlERzW2" fill="white" fill-opacity="1" filter="url(#shadow9534216)"></path></g></g><g><use xlink:href="#p11nYALITP" opacity="1" fill="#ffffff" fill-opacity="1"></use><g><filter id="shadow12059908" x="420" y="40" width="80" height="72" filterUnits="userSpaceOnUse" primitiveUnits="userSpaceOnUse"><feFlood></feFlood><feComposite in2="SourceAlpha" operator="out"></feComposite><feGaussianBlur stdDeviation="1"></feGaussianBlur><feOffset dx="0" dy="2" result="afterOffset"></feOffset><feFlood flood-color="#000000" flood-opacity="0.66"></feFlood><feComposite in2="afterOffset" operator="in"></feComposite><feMorphology operator="dilate" radius="1"></feMorphology><feComposite in2="SourceAlpha" operator="in"></feComposite></filter><path d="M430 100L430 50L490 50L490 100L430 100ZM440 90L480 90L480 60L440 60L440 90Z" id="g7hxFkiBeN" fill="white" fill-opacity="1" filter="url(#shadow12059908)"></path></g></g><g><use xlink:href="#b3FR5PFCQc" opacity="1" fill="#ffffff" fill-opacity="1"></use><g><filter id="shadow16376313" x="350" y="40" width="80" height="72" filterUnits="userSpaceOnUse" primitiveUnits="userSpaceOnUse"><feFlood></feFlood><feComposite in2="SourceAlpha" operator="out"></feComposite><feGaussianBlur stdDeviation="1"></feGaussianBlur><feOffset dx="0" dy="2" result="afterOffset"></feOffset><feFlood flood-color="#000000" flood-opacity="0.66"></feFlood><feComposite in2="afterOffset" operator="in"></feComposite><feMorphology operator="dilate" radius="1"></feMorphology><feComposite in2="SourceAlpha" operator="in"></feComposite></filter><path d="M370 60L370 70L420 70L420 100L360 100L360 50L420 50L420 60L370 60ZM370 90L410 90L410 80L370 80L370 90Z" id="c166RqFi4S" fill="white" fill-opacity="1" filter="url(#shadow16376313)"></path></g></g><g><use xlink:href="#bmwTVC6oa" opacity="1" fill="#ffffff" fill-opacity="1"></use><g><filter id="shadow15015462" x="280" y="40" width="80" height="72" filterUnits="userSpaceOnUse" primitiveUnits="userSpaceOnUse"><feFlood></feFlood><feComposite in2="SourceAlpha" operator="out"></feComposite><feGaussianBlur stdDeviation="1"></feGaussianBlur><feOffset dx="0" dy="2" result="afterOffset"></feOffset><feFlood flood-color="#000000" flood-opacity="0.66"></feFlood><feComposite in2="afterOffset" operator="in"></feComposite><feMorphology operator="dilate" radius="1"></feMorphology><feComposite in2="SourceAlpha" operator="in"></feComposite></filter><path d="M290 60L340 60L340 70L290 70L290 100L350 100L350 90L300 90L300 80L350 80L350 50L290 50L290 60Z" id="a1PSRdJqPd" fill="white" fill-opacity="1" filter="url(#shadow15015462)"></path></g></g><g><use xlink:href="#c13xVLbVsj" opacity="1" fill="#ffffff" fill-opacity="1"></use><g><filter id="shadow13150030" x="70" y="40" width="80" height="92" filterUnits="userSpaceOnUse" primitiveUnits="userSpaceOnUse"><feFlood></feFlood><feComposite in2="SourceAlpha" operator="out"></feComposite><feGaussianBlur stdDeviation="1"></feGaussianBlur><feOffset dx="0" dy="2" result="afterOffset"></feOffset><feFlood flood-color="#000000" flood-opacity="0.66"></feFlood><feComposite in2="afterOffset" operator="in"></feComposite><feMorphology operator="dilate" radius="1"></feMorphology><feComposite in2="SourceAlpha" operator="in"></feComposite></filter><path d="M90 100L90 120L80 120L80 50L140 50L140 100L90 100ZM90 90L130 90L130 60L90 60L90 90Z" id="c5Fh6vJoX" fill="white" fill-opacity="1" filter="url(#shadow13150030)"></path></g></g><g><use xlink:href="#aNBlzpe4a" opacity="1" fill="#ffffff" fill-opacity="1"></use><g><filter id="shadow16558798" x="210" y="40" width="80" height="72" filterUnits="userSpaceOnUse" primitiveUnits="userSpaceOnUse"><feFlood></feFlood><feComposite in2="SourceAlpha" operator="out"></feComposite><feGaussianBlur stdDeviation="1"></feGaussianBlur><feOffset dx="0" dy="2" result="afterOffset"></feOffset><feFlood flood-color="#000000" flood-opacity="0.66"></feFlood><feComposite in2="afterOffset" operator="in"></feComposite><feMorphology operator="dilate" radius="1"></feMorphology><feComposite in2="SourceAlpha" operator="in"></feComposite></filter><path d="M267.5 50L280 50L256.25 75L280 100L267.5 100L250 81.58L232.5 100L220 100L243.75 75L220 50L232.5 50L250 68.42L267.5 50Z" id="d9W33rknIX" fill="white" fill-opacity="1" filter="url(#shadow16558798)"></path></g></g><g><use xlink:href="#a1g2zqDP1p" opacity="1" fill="#ffffff" fill-opacity="1"></use><g><filter id="shadow3911307" x="140" y="20" width="80" height="92" filterUnits="userSpaceOnUse" primitiveUnits="userSpaceOnUse"><feFlood></feFlood><feComposite in2="SourceAlpha" operator="out"></feComposite><feGaussianBlur stdDeviation="1"></feGaussianBlur><feOffset dx="0" dy="2" result="afterOffset"></feOffset><feFlood flood-color="#000000" flood-opacity="0.66"></feFlood><feComposite in2="afterOffset" operator="in"></feComposite><feMorphology operator="dilate" radius="1"></feMorphology><feComposite in2="SourceAlpha" operator="in"></feComposite></filter><path d="M200 100L200 60L160 60L160 100L150 100L150 30L160 30L160 50L210 50L210 100L200 100Z" id="b7gbERLFWL" fill="white" fill-opacity="1" filter="url(#shadow3911307)"></path></g></g></g></svg>